<svg version="1.2" xmlns="http://www.w3.org/2000/svg" viewBox="0 0 800 600" width="800" height="600">
	<title>free-users-icons</title>
	<style>
		.s0 { fill: #ffd16e } 
		.s1 { fill: #e5ba9c } 
		.s2 { fill: #68c497 } 
		.s3 { fill: #f9c5a2 } 
		.s4 { fill: #2d3e50 } 
		.s5 { fill: #4d1b02 } 
	</style>
	<g id="User Icons">
		<g id="7">
			<path id="Shape 11 copy 2" class="s0" d="m400 100.5c110.2 0 199.5 89.3 199.5 199.5 0 110.2-89.3 199.5-199.5 199.5-110.2 0-199.5-89.3-199.5-199.5 0-110.2 89.3-199.5 199.5-199.5z"/>
			<path id="Shape 5 copy 4" class="s1" d="m474 276c9.9 0 18 8.1 18 18 0 9.9-8.1 18-18 18-9.9 0-18-8.1-18-18 0-9.9 8.1-18 18-18z"/>
			<path id="Shape 5 copy 5" class="s1" d="m326 276c9.9 0 18 8.1 18 18 0 9.9-8.1 18-18 18-9.9 0-18-8.1-18-18 0-9.9 8.1-18 18-18z"/>
			<path id="Shape 10 copy 2" fill-rule="evenodd" class="s1" d="m430 389c0 0-11 51 20 73 0 0-9.3 20-22.9 35.7q-13.3 1.8-27.1 1.8c-11.3 0-22.4-0.9-33.3-2.8-13.6-15.5-23.7-34.7-23.7-34.7 0 0 30-14 23-71z"/>
			<path id="Shape 12 copy 2" fill-rule="evenodd" class="s2" d="m362 439.1l-8.3 15.2c0 0 4.8 25.3 27.1 44.3-30.4-2.9-58.9-12.7-83.8-27.7 11.1-5.9 48.3-25.2 65-31.8zm79 14.8l-8.1-14.4c0 0 63.3 29.8 67.3 33.1-25.6 14.8-54.8 24.2-86 26.4 23.2-19.2 26.8-45.1 26.8-45.1z"/>
			<path id="Shape 1 copy 2" class="s3" d="m400 183c44.7 0 81 36.3 81 81v71c0 44.7-36.3 81-81 81-44.7 0-81-36.3-81-81v-71c0-44.7 36.3-81 81-81z"/>
			<path id="Shape 2 copy 8" class="s4" d="m369.5 274c3.6 0 6.5 2.9 6.5 6.5 0 3.6-2.9 6.5-6.5 6.5-3.6 0-6.5-2.9-6.5-6.5 0-3.6 2.9-6.5 6.5-6.5z"/>
			<path id="Shape 2 copy 9" fill-rule="evenodd" class="s4" d="m368.5 272.5c6.9 0 12.6 5 13.8 11.5h-3.1c-1.1-4.9-5.5-8.5-10.7-8.5-5.2 0-9.6 3.6-10.7 8.5h-3.1c1.2-6.5 6.9-11.5 13.8-11.5z"/>
			<path id="Shape 2 copy 10" class="s4" d="m438.5 274c3.6 0 6.5 2.9 6.5 6.5 0 3.6-2.9 6.5-6.5 6.5-3.6 0-6.5-2.9-6.5-6.5 0-3.6 2.9-6.5 6.5-6.5z"/>
			<path id="Shape 2 copy 11" fill-rule="evenodd" class="s4" d="m437.5 272.5c6.9 0 12.6 5 13.8 11.5h-3.1c-1.1-4.9-5.5-8.5-10.7-8.5-5.2 0-9.6 3.6-10.7 8.5h-3.1c1.2-6.5 6.9-11.5 13.8-11.5z"/>
			<path id="Shape 3 copy 2" fill-rule="evenodd" class="s4" d="m405 273v53h-9v-3h6v-50z"/>
			<path id="Shape 7 copy 2" class="s5" d="m481.4 297.5c0 0 12.9-32.8 11.3-57-1.6-34.9-25.8-33.3-25.8-33.3 0 0-23.1-78.5-147.8-57.6 0 0 8 21.5-16.2 78-5.9 7.5-1 17.7-1 17.7l18.2 45.7c0 0 5.4-55.9 14-69.3 8.6-13.5 79.6-36 130.1-1.1 0 0 9.7 57.5 17.2 76.9z"/>
			<path id="Shape 13" fill-rule="evenodd" class="s5" d="m481.9 299.6l4.6 96.7c1.2 24.7-17.6 45.2-41.9 45.2h-89.3c-24.3 0-43.2-20.5-42.2-45.2l3.9-96.7c0.2-4.8 1.3-9.4 3-13.6 2.3 25.7 13.1 48.4 29.1 63.9v-2c0-11.2 9.1-20.3 20.4-20.3h60c11.2 0 20.4 9.1 20.4 20.3v2.9c16-15 27.1-37.2 29.8-62.5 1.3 3.6 2 7.4 2.2 11.3zm-114.9 48.4c3.9 14.8 17.4 25.8 33.5 25.8 16.1 0 29.6-11 33.5-25.8z"/>
		</g>
	</g>
</svg>